<?xml version="1.0" encoding="utf-8"?>
<!-- Generator: Adobe Illustrator 27.0.0, SVG Export Plug-In . SVG Version: 6.00 Build 0)  -->
<svg version="1.1" id="圖層_1" xmlns="http://www.w3.org/2000/svg" xmlns:xlink="http://www.w3.org/1999/xlink" x="0px" y="0px"
	 viewBox="0 0 1024 1024" style="enable-background:new 0 0 1024 1024;" xml:space="preserve">
<style type="text/css">
	.st0{fill:#FFFFFF;}
	.st1{fill:#7A4F00;}
</style>
<circle class="st0" cx="512" cy="511" r="503"/>
<path class="st1" d="M185.2,819.4l0-403.3c0-25.6-1.3-51.6,3.8-76.8c16.2-79.9,79.9-134.6,161.3-140.7
	c74.5-1.3,121.6,29.8,166.8,86.9L629,428.2V201.8h51.5l0,267.3c0,13.1,3.2,35.9-4.5,47.4c-7.6,11.3-25.3,15.2-36.2,6.3
	c-5.3-4.4-9.5-10.8-13.8-16.2l-88.4-111.9c-24.7-31.8-77.1-104.4-108-124.5c-74.4-44.8-172.5-7.5-189.6,78.8
	c-4.4,22.1-3,45.5-3,67.9l0,402.4H185.2z"/>
<path class="st1" d="M344.5,782.2l0-353.2c0-15.5-4.3-49.1,7.2-61.2c10-10.4,27.5-8.8,36.4,2.2c6.2,7.7,11.9,21.3,16.4,30.5
	l137,268.8c11,21.4,20.9,45.2,37.9,62.5c69.8,71,188,38.2,206.3-59.2c3.3-17.7,1.8-38,1.8-56.1l0-417.9h52.9l0,412.4
	c0,20.8,1,42.3-1.9,62.9C824.9,769.5,736.9,834.6,641,820.3c-64.7-9.7-108.1-52.3-135.9-108.2L416.8,539
	c-6.6-12.8-12.6-25.6-21.2-37.2c0.3,11.7,0,23.5,0,35.1l0,282.5h-51.1V782.2z"/>
</svg>
