<?xml version="1.0" encoding="utf-8"?>
<!-- Generator: Adobe Illustrator 27.0.0, SVG Export Plug-In . SVG Version: 6.00 Build 0)  -->
<svg version="1.1" id="圖層_1" xmlns="http://www.w3.org/2000/svg" xmlns:xlink="http://www.w3.org/1999/xlink" x="0px" y="0px"
	 viewBox="0 0 1023 1023" style="enable-background:new 0 0 1023 1023;" xml:space="preserve">
<style type="text/css">
	.st0{fill:#FFFFFF;}
	.st1{fill:#E6A91F;}
	.st2{fill:#B27E1A;}
	.st3{fill:#7A4F00;}
</style>
<circle class="st0" cx="511.5" cy="511.5" r="503"/>
<path class="st1" d="M397.1,435.9c0,0,0.1,0.1,0.1,0.1c1.4,2.2,0.7,56.8,0.7,63.9c-16.8-0.4-33.8-0.1-50.6-0.1l-0.5-0.2
	c-0.2-0.4-0.4-0.6-0.5-1.1c-0.3-1.7,0-3.9,0-5.6c0-10.1,2.1-18.9,7.2-27.6C363.4,448.8,379.1,440.6,397.1,435.9z"/>
<path class="st1" d="M413.6,435.9c13.5,2.1,26.3,7.1,36.1,16.9c13.8,14,16.6,28,16.6,46.9l-52.8,0.2
	C413.4,478.5,413.4,457.2,413.6,435.9z"/>
<path class="st1" d="M346.5,512.2l51.5,0.4c0.5,21.7,0.1,43.5,0.1,65.2c-17.2-0.5-34.5-0.1-51.7,0C346.4,556,345.7,534,346.5,512.2z
	"/>
<path class="st1" d="M413.7,512.6c16.8,1.2,35.2,0.8,52.1,0c-0.1,21.8-0.1,43.5,0.1,65.3c-17.3-0.5-34.9-0.3-52.2,0L413.7,512.6z"/>
<path class="st1" d="M283.8,769.8c29.1-1.6,61.5,1.1,90.1,6.6c12.5,2.4,25.1,4.9,37.4,8.1c28.6,7.5,56.7,17.1,84.9,26
	c28.5,9,57.2,17.5,86,25.6c7.5,2.2,15.1,4.3,22.8,6.1c5.3,1.3,39.6,8.4,40.6,9.2c-21.3-1.8-42.6-4.3-63.8-7.3
	c-21.2-3.1-42.3-6.8-63.3-11.1c-9.3-1.4-18.6-3.8-27.8-5.6c-21.2-4.2-42.3-8.7-63.4-13.3c-92.1-19.4-186.4-32.4-279.3-10
	c5.7-3.9,12.5-6.5,18.9-9.2C203.9,778.8,243.6,771.7,283.8,769.8z"/>
<path class="st2" d="M712.7,488c42.2-0.1,84.4,0.5,126.6-0.2c0,5.4,0.1,10.9-0.1,16.3c-12.3-0.1-26-2-35.7,7.4
	c-4.1,4-7.1,9.4-8.4,15c-1.6,6.7-0.7,14.9-0.7,21.8l-0.2,35.2l0.3,164.6l0.1,42.4c0,7.1-0.3,14.4,0.1,21.5
	c-11.4,0.9-23.4,1-34.7,0.1c-7.1-12.8-22.7-26-31.3-38.6c0.9,0,1.1,0.3,1.9,0.7c1-0.3,1.5-0.7,2.2-1.4c4.2-4.1,5.9-14.1,7.1-19.6
	c1.3-5.8,2.8-11.6,3.9-17.5c2-11.4,2.6-23,3-34.6c0.1-3.1,2.7-5.4,2.4-8.2c-0.3-2.4-2-4.6-2.4-7c0-0.2,0-0.4-0.1-0.6
	c4.1,4.5,7.5,9.6,11.1,14.5l0.1-118.1l0.2-33.5c0-6.8,0.6-13.9-0.5-20.6c-0.9-5.7-3.4-11.1-7.5-15.2c-6-6-13.3-8.3-21.7-8.2
	c-5.1,0-10.3,0.3-15.4,0.5L712.7,488z"/>
<path class="st3" d="M126.2,792.6c7.2-10.6,23.3-24.9,33.6-33.1c24.6-19.6,52.9-32.5,82.8-41.8c84.3-26.2,163-10.3,244.5,17.1
	c27.6,9.3,54.7,19.7,82.3,29c44.4,14.9,88.9,28.5,134.7,38.3c18.5,4,37,7.6,55.8,9.7c11.4,0.9,23.4,0.8,34.7-0.1
	c43.9-3.8,65.6-5.4,106.6-22.8c-10.5,10.4-22.7,18.8-35.5,26.2c-52,30.3-120.8,34-179.2,26.7c-14.4-1.8-28.8-4.7-43-7.7
	c-34.6-7.2-68.7-16-102.5-26.4c-38.9-12-77.3-26.1-116.6-36.5c-72.1-19.1-137-30.3-210.9-13.4c-3.8,0.9-7.7,1.8-11.4,2.8
	c-3.8,1-7.6,2.1-11.3,3.3c-3.8,1.2-7.5,2.4-11.2,3.7c-3.7,1.3-7.4,2.7-11.1,4.1c-3.7,1.4-7.3,3-10.9,4.5c-3.6,1.6-7.2,3.2-10.7,4.9
	c-3.5,1.7-7,3.5-10.5,5.3C133.1,788.7,129.6,790.7,126.2,792.6z"/>
<path class="st2" d="M406.9,172.1c5.6,2.4,87.8,90.2,99.2,101.7l-0.2-96.7c27.8,0.7,55.6,0.8,83.4,0.5l0,129.4
	c-0.1,15.3,0.4,30.5,0,45.8c31.4,32.7,62.8,65.7,93.2,99.3c-21.4-0.5-42.9-0.2-64.3-0.5c-4.8-4-9.2-8.6-13.8-12.9l-29.8-28.9
	c-20-19-39.9-38.3-59.6-57.6c-21.6-21.7-42.6-44-64.1-65.8c-9.2-9.8-18.6-19.3-28-29c-5.4-5.6-11.5-11.2-16-17.5
	c-33.8,32.8-66.2,66.9-99.4,100.4c-26.3,26.2-52.4,52.7-78.1,79.5c-11.2,11.5-22.9,22.5-33.8,34.3l-69.8,0
	c11-10.1,21.3-21.1,31.7-31.7l44.4-44.7l147.6-148.3C368.7,210.4,387.2,190.4,406.9,172.1z"/>
<path class="st3" d="M406.4,271.4c11,10.6,20.8,22.7,31.1,34c17.7,19.3,35.8,38.3,54.3,56.8l-0.2,33.1c8,9.9,16.7,19.1,25.2,28.5
	l49.6,54.5c43.3,47.4,85.7,95.6,127.3,144.6c17.7,20.7,36.2,40.7,52.9,62.2c0,0.2,0,0.4,0.1,0.6c0.4,2.4,2.2,4.6,2.4,7
	c0.3,2.8-2.3,5.1-2.4,8.2c-0.4,11.5-1,23.2-3,34.6c-1,5.9-2.6,11.7-3.9,17.5c-1.2,5.5-2.9,15.5-7.1,19.6c-0.7,0.7-1.2,1.1-2.2,1.4
	c-0.8-0.5-1-0.8-1.9-0.7c-6.2-6.4-11.7-13.8-17.5-20.6c-10.3-12.2-20.9-24.2-31.4-36.3L560.1,582.3c-13.7-15.2-26.7-31.7-41.3-46
	l0.6,190.1c-13.5-3.9-26.4-10.8-39.3-16.6c0.2-25.4,0.2-50.7,0-76.1l0.2-72.5l-0.1-46.8c-0.1-10.8,0.4-22.4-1.7-33
	c-0.2-0.9-0.3-1.7-0.5-2.6c-0.2-0.8-0.4-1.7-0.6-2.5c-0.2-0.8-0.5-1.7-0.7-2.5c-0.3-0.8-0.5-1.7-0.8-2.5c-0.3-0.8-0.6-1.6-0.9-2.4
	c-0.3-0.8-0.6-1.6-1-2.4c-0.3-0.8-0.7-1.6-1.1-2.4c-0.4-0.8-0.8-1.6-1.2-2.3c-0.4-0.8-0.8-1.5-1.2-2.3c-0.4-0.8-0.9-1.5-1.3-2.2
	c-0.5-0.7-0.9-1.5-1.4-2.2c-0.5-0.7-1-1.4-1.5-2.1c-0.5-0.7-1-1.4-1.6-2.1c-0.5-0.7-1.1-1.4-1.6-2c-0.6-0.7-1.1-1.3-1.7-2
	c-0.6-0.6-1.2-1.3-1.8-1.9c-13.9-14.2-35.6-23.4-55.5-23.5c-18.7,0-37.6,9.4-50.6,22.4c-0.6,0.6-1.2,1.2-1.8,1.9
	c-0.6,0.6-1.2,1.3-1.7,1.9s-1.1,1.3-1.6,2c-0.5,0.7-1.1,1.4-1.6,2c-0.5,0.7-1,1.4-1.5,2.1c-0.5,0.7-1,1.4-1.4,2.1
	c-0.5,0.7-0.9,1.5-1.3,2.2c-0.4,0.7-0.8,1.5-1.2,2.2c-0.4,0.8-0.8,1.5-1.2,2.3c-0.4,0.8-0.7,1.5-1.1,2.3c-0.3,0.8-0.7,1.6-1,2.4
	c-0.3,0.8-0.6,1.6-0.9,2.4c-0.3,0.8-0.6,1.6-0.8,2.4c-0.3,0.8-0.5,1.6-0.7,2.5c-0.2,0.8-0.4,1.7-0.6,2.5c-0.2,0.8-0.4,1.7-0.5,2.5
	c-2.2,10.7-1.7,22-1.7,32.9l0,36.1l0.1,134c-38,0.7-74,6.7-109.3,20.9l0.2-247.1c3.8-4.8,8.4-9.1,12.7-13.4l16.3-16.6l47.4-47.5
	c16.7-16.7,33.8-33.2,50.2-50.2C369.1,309.7,387.2,289.9,406.4,271.4z"/>
</svg>
