<?xml version="1.0" encoding="utf-8"?>
<!-- Generator: Adobe Illustrator 27.0.0, SVG Export Plug-In . SVG Version: 6.00 Build 0)  -->
<svg version="1.1" id="圖層_1" xmlns="http://www.w3.org/2000/svg" xmlns:xlink="http://www.w3.org/1999/xlink" x="0px" y="0px"
	 viewBox="0 0 1024 1024" style="enable-background:new 0 0 1024 1024;" xml:space="preserve">
<style type="text/css">
	.st0{fill:#FFFFFF;}
	.st1{fill:#7A4F00;}
</style>
<circle class="st0" cx="512" cy="511" r="503"/>
<path class="st1" d="M464,678.3c11.6,11,22.7,22.6,33.9,34l49.2,49.9c12.8,13,25.1,15.7,42.9,15.8l53.5,0c14.3,0,34.3,1.7,47.8-2
	c34.3-9.5,39.9-37.6,39.9-67.3l0-539.8h74.1l0,536.8c0,8.8,0.2,17.7-0.6,26.5c-5.9,61.6-56.5,116.1-119.4,120.1
	c-7.8,0.5-15.8,0.2-23.7,0.2l-69.6,0c-53.7,0-73.8-12-109.1-48l-73.4-75c-6.9-7-14.3-13.9-20.6-21.5V462.8V314.7H464V678.3z"/>
<path class="st1" d="M219.4,852.6l0-508.1c0-20.2-1.5-46.1,1.6-65.4c9.7-61,59.3-103.6,120.3-108.9c21.2-1.1,42.7,0,63.9,0
	c84.9,0,88.4,1.5,144.5,57.4l83.5,84.3v396.5h-73.7V342.4c-20.2-24-55.4-56.1-78.6-79.3c-21.7-21.6-39.9-18.8-68.5-18.8l-43.9,0
	c-49.6-0.3-74,14.5-74,66.8l0,541.5H219.4z"/>
</svg>
