<?xml version="1.0" encoding="utf-8"?>
<!-- Generator: Adobe Illustrator 27.0.0, SVG Export Plug-In . SVG Version: 6.00 Build 0)  -->
<svg version="1.1" id="圖層_1" xmlns="http://www.w3.org/2000/svg" xmlns:xlink="http://www.w3.org/1999/xlink" x="0px" y="0px"
	 viewBox="0 0 1023 1023" style="enable-background:new 0 0 1023 1023;" xml:space="preserve">
<style type="text/css">
	.st0{fill:#FFFFFF;}
	.st1{fill:#C0880D;}
	.st2{fill:#CD7801;}
	.st3{fill:#7A4F00;}
	.st4{fill:#FAB306;}
</style>
<circle class="st0" cx="511" cy="511" r="503"/>
<path class="st1" d="M510.2,325.9c0.5,1.4,0.7,2.6,0.8,4.1l0.3,32.9c-8.1-0.1-16.2-0.1-24.3,0c-4.2,0-10.4,0.9-14.4-0.2
	c0.7-0.8,1.3-1.1,2.3-1.6c11.5,1.5,23.4-1,34.9,0.2C510.1,350.3,508.7,336.4,510.2,325.9z"/>
<path class="st2" d="M472.6,365.7c10.8,0.4,21.6,0.1,32.4,0.1l0.1,1.1c-10.2,0.1-20.6-0.3-30.7,0.8c0.4,6.5,1.3,29.2,0.2,34.6
	c-0.6,0.2-1.3,0.5-1.8,0.9c0.5-3.5,0.3-7.5,0.3-11C473.1,383.2,472.7,374.5,472.6,365.7z"/>
<path class="st1" d="M505,365.8l6.1,0c-0.1,13-0.1,26.1,0.1,39.1c-6.3,0-33.6,0.7-37.6-0.7l-0.8-1.1c0.5-0.4,1.3-0.6,1.8-0.9
	c3.3,1.2,29.2,0.5,34.7,0.6c0.8-11.9-0.1-24,0.4-36l-4.6,0L505,365.8z"/>
<path class="st3" d="M550.9,323.5c0.9,0.8,0.9,0.9,1,2.2c0.3,3.4-0.2,6.9-0.2,10.3c-0.1,6.5,0.7,21.3-0.4,26.7
	c-0.8,0.5-0.4,0.4-1.3,0.4c-11.9-0.5-23.8-0.2-35.7-0.2c0.1-10.5-0.1-21.1,0.1-31.6c0.6,1.3,0.3,2.6,1,3.9l-0.1,26.3l21.7-0.2
	c4.1-0.1,8.4-0.4,12.5,0c1.4-3.8,0.7-28.5,0.8-34.2C550.7,325.8,550.8,324.8,550.9,323.5z"/>
<path class="st2" d="M473,323.6c12.7-0.1,25.4,0,38.1,0.2c-0.1,2.1-0.1,4.2-0.2,6.2c-0.1-1.5-0.3-2.7-0.8-4.1
	c-6.9-1.3-27.3-0.6-35-0.2c-0.4,11.6,0.6,24.1-0.4,35.5c-1,0.4-1.6,0.7-2.3,1.6c0.7-4.3,0.3-9.3,0.4-13.6L473,323.6z"/>
<path class="st3" d="M596.6,365.9c1,1,1.9,2,2.8,3c0.1,26.9-0.4,53.8-0.5,80.7c0,25.3,0.5,50.7,0,76c-0.1,2.8-0.4,19.4-1.4,20.5
	l-0.7-0.7C596.5,485.6,597.7,425.7,596.6,365.9z"/>
<path class="st4" d="M505.1,366.9l4.6,0c-0.5,12,0.4,24-0.4,36c-5.5,0-31.4,0.7-34.7-0.6c1.1-5.4,0.2-28-0.2-34.6
	C484.5,366.6,495,367,505.1,366.9z"/>
<path class="st4" d="M475.1,325.7c7.8-0.4,28.2-1.2,35,0.2c-1.4,10.5,0,24.4-0.5,35.5c-11.5-1.2-23.4,1.3-34.9-0.2
	C475.7,349.8,474.7,337.3,475.1,325.7z"/>
<path class="st4" d="M514.3,323.7c12.2,0,24.5,0,36.7-0.1c-0.1,1.3-0.3,2.3-0.7,3.5c-0.1,5.7,0.6,30.4-0.8,34.2
	c-4.1-0.3-8.4,0-12.5,0l-21.7,0.2l0.1-26.3c-0.6-1.3-0.4-2.6-1-3.9L514.3,323.7z"/>
<path class="st2" d="M514.3,323.7c12.2,0,24.5,0,36.7-0.1c-0.1,1.3-0.3,2.3-0.7,3.5c-0.3-1.1-0.1-1.2-1-1.8
	c-11.2-0.4-22.5,0.2-33.7,0.2c0,3.3,0,6.5-0.2,9.8c-0.6-1.3-0.4-2.6-1-3.9L514.3,323.7z"/>
<path class="st1" d="M549.2,365.6c0.8,0,1.4,0,2.2,0.1c0.7,4.3,0.2,9.2,0.2,13.5c0,8.4,0,16.9,0.1,25.3c-11.6,0-23.2,0.1-34.8,0.3
	c-1.2,0-1.4,0.2-2.4-0.5c-0.5-5-0.2-10.2-0.1-15.2l0-23.4C525.9,365.8,537.6,365.8,549.2,365.6z"/>
<path class="st4" d="M522.2,366.9l27.9-0.1c0.1,11.9,0.4,23.9-0.3,35.8l-6.1,0c-9.3-0.1-18.7-0.3-28,0.2
	c-0.2-11.8,0.5-23.9-0.4-35.7L522.2,366.9z"/>
<path class="st4" d="M303,691.3c46.2-1.4,98.5,13.1,142.4,27.2c23,7.4,46.3,14,69.1,22.1c55.8,19.9,110.5,41.2,168,56.1
	c22.4,5.8,45,11.2,68.2,13c16.4,1.3,33.4,1.2,49.7-1.3c6.8-1.1,13.5-2.8,20.2-4.2c-8.2,3.6-17.3,5.9-26,8.1
	c-12.7,3.2-25.6,5.8-38.7,7.1c-20.6,1.9-43.8,0.4-64.3-2.1c-29.2-3.5-57.9-10.6-86.1-18.4C548.5,783.2,494,762.7,438,744.5
	c-51-16.6-106.4-33.1-160.5-32.6c-2,0-4.1,0-6.1,0.1c-2,0.1-4,0.1-6.1,0.3c-2,0.1-4,0.3-6.1,0.4c-2,0.2-4,0.4-6,0.6
	c-2,0.2-4,0.5-6,0.8c-2,0.3-4,0.6-6,0.9c-2,0.3-4,0.7-6,1.1s-4,0.8-5.9,1.3c-2,0.5-3.9,0.9-5.9,1.5c-2,0.5-3.9,1.1-5.9,1.6
	c-1.9,0.6-3.9,1.2-5.8,1.8c-1.9,0.6-3.8,1.3-5.8,2c-1.9,0.7-3.8,1.4-5.7,2.1c-1.9,0.7-3.8,1.5-5.6,2.3c-1.9,0.8-3.7,1.6-5.6,2.4
	c-1.8,0.8-3.7,1.7-5.5,2.6c20.7-17.4,53-31.2,79.2-37.1C276.1,693.5,289.4,692,303,691.3z"/>
<path class="st3" d="M241.9,764.5c11.5-0.8,23.8,0.3,35.2,1.9c7.2,1,14.5,2,21.6,3.5c14.6,3.2,28.6,7.7,42.7,12.6
	c37.7,12.9,74.1,29.5,111.4,43.6c46.9,17.8,91.2,33.4,140.6,43.5l-8.3,1.9c-6.1,1.3-12.2,2.4-18.4,3.4c-6.2,1-12.4,1.8-18.6,2.4
	c-6.2,0.6-12.4,1.1-18.7,1.4c-6.2,0.3-12.5,0.4-18.7,0.4c-83-0.2-163.7-33.1-229.7-82.1c-8.7-6.5-16.9-13.3-25.2-20.4
	C251.1,772.6,246.2,768.8,241.9,764.5z"/>
<path class="st3" d="M264.2,729.5c5.6-0.6,11.6-0.3,17.2-0.3c26,0.3,50.7,5,75.9,10.7c35,8,69.1,18.7,103.1,29.9
	c30.5,10.1,61,20.3,91.6,29.8c41.5,12.9,83.2,24,126.2,30.8c62.5,9.9,127.8,3.2,184-27.1c9.1-4.9,18.4-10.4,26.8-16.3
	c5.2-3.7,10.1-7.7,15.3-11.4c-1.2,1.2-2.3,2.4-3.5,3.6c-1.2,1.2-2.4,2.4-3.6,3.6c-1.2,1.2-2.4,2.4-3.6,3.5c-1.2,1.2-2.5,2.3-3.7,3.4
	c-1.2,1.1-2.5,2.3-3.8,3.4c-1.3,1.1-2.5,2.2-3.8,3.3c-1.3,1.1-2.6,2.2-3.9,3.2c-1.3,1.1-2.6,2.1-3.9,3.2c-1.3,1-2.7,2.1-4,3.1
	c-1.3,1-2.7,2-4.1,3s-2.7,2-4.1,3c-1.4,1-2.8,1.9-4.2,2.9c-1.4,0.9-2.8,1.9-4.2,2.8c-1.4,0.9-2.8,1.8-4.3,2.7
	c-1.4,0.9-2.9,1.8-4.3,2.6s-2.9,1.7-4.4,2.6c-1.5,0.8-2.9,1.7-4.4,2.5c-1.5,0.8-3,1.6-4.5,2.4c-1.5,0.8-3,1.6-4.5,2.3
	c-1.5,0.8-3,1.5-4.5,2.3c-1.5,0.7-3,1.5-4.6,2.2c-1.5,0.7-3.1,1.4-4.6,2.1c-1.5,0.7-3.1,1.3-4.6,2c-1.6,0.7-3.1,1.3-4.7,1.9
	c-1.6,0.6-3.1,1.2-4.7,1.8c-1.6,0.6-3.2,1.2-4.8,1.7c-1.6,0.6-3.2,1.1-4.8,1.7c-1.6,0.5-3.2,1.1-4.8,1.6c-1.6,0.5-3.2,1-4.8,1.5
	c-1.6,0.5-3.2,0.9-4.9,1.4c-1.6,0.5-3.3,0.9-4.9,1.3c-1.6,0.4-3.3,0.8-4.9,1.2c-9.1,2.5-18.7,3.9-28,5.3
	C676,870,618.4,859.6,558.7,843c-30.4-8.6-60.4-18.5-89.9-29.9l-59-23.2c-25.5-10.1-51.1-20.5-77.6-28c-8.9-2.5-18.2-4.5-27.3-6.4
	c-67.1-14.2-127.3,5.1-183.5,41.7c0.3-0.4,0.6-0.7,0.9-1.1c8.8-10.2,19.4-18.6,30.4-26.2C186.8,745.9,222.5,732.6,264.2,729.5z"/>
<path class="st3" d="M512.2,242c60.4,56.7,121.3,113.1,182.4,169.1c0.4,30,0,60.1,0.1,90.1l0,226.3c-7.8,0.3-15.5-0.3-23.3-0.1
	l0.2-303.1c-7.4-8.1-15.9-15.4-23.9-22.8l-29-27.1l-82.3-77.5c-7.9-7.6-16.1-14.9-24-22.6c-16.7,16.4-34.3,32-51.4,47.9
	c-36.3,33.5-72.3,67.2-108,101.3l0.1,256.9c-8-1.3-16.1-1.8-24.1-2.4l0.1-183.1l0.1-51.5c0-9.9-0.5-19.9-0.1-29.7
	c6.8-8.2,15.6-15.4,23.4-22.7l45.9-42.7c25.5-24.1,51.1-48,76.9-71.7C487.7,265,499.7,253.1,512.2,242z"/>
<path class="st3" d="M512.1,159.4c6.4,4.4,16.7,16,22.9,21.8l59.2,55.5c6.2,5.8,12.7,11.4,18.9,17.2
	c38.3,35.2,76.3,70.7,113.9,106.7c12.8,12.3,26.4,24.1,38.8,36.8c0.5,21.2-0.9,42.5,0.2,63.6c-4.8-6.6-12.1-11.8-18-17.4l-50.1-47.1
	L587.3,293.2c-24.5-22.8-49.4-45.2-73.4-68.5c-0.5-0.5-1-0.8-1.6-1.2c-3.8,1.6-24.8,22.9-29.5,27.4l-54.6,51.2l-169,156.1
	c0-20.5,0.6-41.3-0.3-61.8c4.7-4.8,9.9-9.2,14.8-13.7l32.8-30.4l92-85.7l81.2-76c6.1-5.7,12.2-11.4,18.2-17.2
	C502.5,168.7,507,163.7,512.1,159.4z"/>
<path class="st1" d="M497.4,145.6c1.7-0.3,3.6-0.2,5.3-0.3c-8.8,8.2-17.9,16-26.8,24c-10.2,9.2-20.1,18.7-30.5,27.8
	c-4.2,3.7-11.2,11.2-15.6,13.7c-3.3,1.9-7.4,2.9-11,4.1c-6.3,2.1-12.5,4.2-18.7,6.7c-5.9,2.3-11.7,4.8-17.4,7.4
	c-5.7,2.6-11.4,5.4-17,8.3c-5.6,2.9-11.1,6-16.5,9.2c-5.4,3.2-10.8,6.6-16,10.1c-5.1,3.4-10.1,7-15,10.8c-4.9,3.8-9.7,7.7-14.3,11.7
	c-4.6,4.1-9.1,8.3-13.5,12.6c-4.4,4.4-8.6,8.8-12.7,13.5c-38.1,42.6-61,89.1-72.4,145c-16,78.6-0.3,164.9,44,232
	c-7.5,3.1-15.4,5.3-23,8.4c-9.2,3.7-17.7,8.5-26.3,13.4c-6.2-8.5-11.1-18.3-15.8-27.7c-1.3-2.7-2.7-5.4-3.9-8.1
	c-1.3-2.7-2.5-5.4-3.7-8.2c-1.2-2.7-2.4-5.5-3.5-8.3s-2.3-5.5-3.3-8.3c-1.1-2.8-2.1-5.6-3.1-8.4c-1-2.8-2-5.6-2.9-8.5
	c-0.9-2.8-1.8-5.7-2.7-8.6c-0.9-2.9-1.7-5.7-2.5-8.6c-0.8-2.9-1.6-5.8-2.3-8.7c-0.7-2.9-1.4-5.8-2.1-8.7c-0.7-2.9-1.3-5.8-1.9-8.8
	c-0.6-2.9-1.1-5.9-1.7-8.8c-0.5-2.9-1-5.9-1.4-8.9c-0.4-3-0.9-5.9-1.2-8.9c-0.4-3-0.7-5.9-1-8.9c-0.3-3-0.6-6-0.8-8.9
	c-7.7-101.9,24.5-193.9,91-270.8c13.5-15.6,31.3-31.4,47.7-44c3.1-2.4,6.2-4.7,9.3-7c3.1-2.3,6.3-4.5,9.6-6.7
	c3.2-2.2,6.5-4.3,9.8-6.4c3.3-2.1,6.6-4.1,9.9-6.1c3.3-2,6.7-3.9,10.1-5.8c3.4-1.9,6.8-3.7,10.3-5.5c3.5-1.8,7-3.5,10.5-5.2
	c3.5-1.7,7.1-3.3,10.6-4.8c3.6-1.6,7.2-3.1,10.8-4.5c3.6-1.4,7.2-2.8,10.9-4.2c3.7-1.3,7.3-2.6,11-3.8c3.7-1.2,7.4-2.4,11.1-3.5
	c3.7-1.1,7.5-2.1,11.2-3.1c3.8-1,7.5-1.9,11.3-2.8c3.8-0.9,7.6-1.7,11.4-2.4c3.8-0.8,7.6-1.4,11.5-2.1
	C468.5,147.9,482.9,146.6,497.4,145.6z"/>
<path class="st3" d="M520.9,145c7.3,0.7,14.6,0.9,21.9,1.5c7.6,0.6,15.1,1.5,22.6,2.7c7.5,1.2,15,2.6,22.4,4.2
	c3.1,0.7,6.1,1.4,9.2,2.2c3,0.8,6.1,1.6,9.1,2.4c3,0.8,6,1.7,9.1,2.6c3,0.9,6,1.9,9,2.9c3,1,6,2,8.9,3.1c3,1.1,5.9,2.2,8.8,3.3
	c2.9,1.1,5.8,2.3,8.8,3.5c2.9,1.2,5.8,2.5,8.7,3.7c2.9,1.3,5.7,2.6,8.6,3.9c2.8,1.3,5.7,2.7,8.5,4.2c2.8,1.4,5.6,2.9,8.4,4.4
	c2.8,1.5,5.5,3,8.2,4.6c2.7,1.6,5.4,3.1,8.1,4.8c2.7,1.6,5.4,3.3,8,5c2.7,1.7,5.3,3.4,7.9,5.2c2.6,1.8,5.2,3.5,7.8,5.4
	c2.6,1.8,5.1,3.7,7.6,5.6c2.5,1.9,5,3.8,7.5,5.7s4.9,3.9,7.3,5.9c2.4,2,4.8,4,7.2,6.1c2.4,2.1,4.7,4.2,7,6.3
	c2.3,2.1,4.6,4.3,6.9,6.5c2.3,2.2,4.5,4.4,6.7,6.6c2.2,2.2,4.4,4.5,6.5,6.8c2.2,2.3,4.3,4.6,6.4,6.9s4.2,4.7,6.2,7.1
	c2,2.4,4,4.8,6,7.3c2,2.4,3.9,4.9,5.8,7.4c1.9,2.5,3.8,5,5.7,7.5c1.9,2.5,3.7,5.1,5.5,7.7c1.8,2.6,3.5,5.2,5.3,7.8
	c1.7,2.6,3.4,5.3,5.1,7.9c48.8,77.4,64.9,179,44.6,268.1c-0.7,3.2-1.5,6.4-2.3,9.5c-0.8,3.2-1.7,6.3-2.6,9.5
	c-0.9,3.1-1.8,6.3-2.8,9.4c-1,3.1-2,6.2-3.1,9.3c-1.1,3.1-2.2,6.2-3.3,9.2c-1.1,3.1-2.3,6.1-3.6,9.1c-1.2,3-2.5,6-3.8,9
	c-1.3,3-2.7,6-4,8.9c-1.4,3-2.8,5.9-4.3,8.8c-1.5,2.9-3,5.8-4.5,8.7c-1.5,2.9-3.1,5.7-4.7,8.6c-1.6,2.8-3.3,5.6-5,8.4
	c-1.7,2.8-3.4,5.6-5.2,8.3c-1.8,2.7-3.6,5.5-5.4,8.2c-1.8,2.7-3.7,5.4-5.6,8c-1.9,2.6-3.9,5.3-5.8,7.9c-10,13.3-20.5,25.9-32.5,37.5
	c-7.4,7.2-16.9,17.1-25.6,22.5c-3.9,0-7.7-0.5-11.6-1c-19.8-2.6-39.2-8.5-58-15c20.4-12.1,39.4-28.3,55.9-45.3
	c29.7-30.5,51.8-63.6,68-102.9c5-12,9.5-24.4,12.8-37.1c3.9-15.1,6.3-31.1,7.8-46.6c1.2-11.4,1.8-22.8,1.7-34.3
	c0-2.7-0.1-5.4-0.2-8.1c-0.1-2.7-0.2-5.4-0.4-8.1c-0.2-2.7-0.4-5.4-0.6-8.1c-0.2-2.7-0.5-5.4-0.8-8c-0.3-2.7-0.6-5.3-1-8
	c-0.4-2.7-0.8-5.3-1.2-8s-0.9-5.3-1.4-8c-0.5-2.6-1-5.3-1.6-7.9s-1.2-5.3-1.8-7.9c-0.6-2.6-1.3-5.2-2-7.8c-0.7-2.6-1.4-5.2-2.2-7.8
	c-0.8-2.6-1.6-5.1-2.4-7.7c-0.8-2.6-1.7-5.1-2.6-7.6c-0.9-2.5-1.8-5.1-2.8-7.6c-1-2.5-2-5-3-7.5c-1-2.5-2.1-5-3.2-7.4
	c-1.1-2.5-2.2-4.9-3.4-7.3c-1.2-2.4-2.4-4.8-3.6-7.2c-1.2-2.4-2.5-4.8-3.8-7.1c-1.3-2.4-2.6-4.7-3.9-7s-2.7-4.6-4.1-6.9
	c-1.4-2.3-2.8-4.6-4.3-6.8c-1.5-2.3-3-4.5-4.5-6.7c-1.5-2.2-3.1-4.4-4.7-6.6c-1.6-2.2-3.2-4.3-4.8-6.5c-1.6-2.1-3.3-4.3-5-6.4
	c-1.7-2.1-3.4-4.2-5.1-6.2c-1.7-2.1-3.5-4.1-5.3-6.1c-1.8-2-3.6-4-5.5-6c-1.8-2-3.7-3.9-5.6-5.8c-1.9-1.9-3.8-3.8-5.8-5.7
	c-1.9-1.9-3.9-3.7-5.9-5.5c-16.9-15.2-36-28.3-55.7-39.7c-14.3-8.3-29.8-15.1-45.2-20.9c-7.8-2.9-21.3-5.8-27.7-10
	c-6.1-4.1-14.2-12.2-20-17.3C555.7,177.5,537.9,161.5,520.9,145z"/>
<path class="st1" d="M599.4,368.9c20.9,19.7,42.9,38.4,63.4,58.5c0.6,99.9,0.6,199.8-0.1,299.7c-13.3-0.2-26.5-0.2-39.8-0.1
	c-6.2,0-12.4,0.4-18.5,0.2c-24.5-31.2-50.3-61.6-75.8-91.9c-6.2-7.3-12.6-14.5-18.6-21.8l-56.8-68.2c-9-10.9-17.6-22.4-27.2-32.8
	c-0.5,6.8-0.2,13.6-0.2,20.4l0.2,42.4c-0.1,40.6-0.7,81.4,0.2,122c-12.2-3.6-24.4-7.3-36.8-10c-8.9-2-18-3.2-27-5L362.3,545
	c0.1-39.2,0-78.5-0.4-117.7c19.6-19.7,41.3-38.4,61-58c17,18.4,32.6,37.9,48.8,57l81.3,95.7l28.3,33.8c5.2,6.2,10.2,12.9,15.7,18.7
	c-0.1-9.7-0.3-19.4-0.2-29.1l0.7,0.7c1.1-1.1,1.4-17.7,1.4-20.5c0.5-25.3,0-50.7,0-76C599,422.7,599.5,395.8,599.4,368.9z"/>
</svg>
